<svg width="186" height="78" viewBox="0 0 186 78" fill="none" xmlns="http://www.w3.org/2000/svg">
<g clip-path="url(#clip0_485_761)">
<path d="M11.3409 78C9.83343 78 8.44451 77.7854 7.1685 77.362C5.8925 76.9385 4.78587 76.3231 3.84863 75.5214C2.91139 74.7196 2.1774 73.7033 1.64668 72.4725C1.11595 71.2417 0.850586 69.8527 0.850586 68.3114C0.850586 66.3748 1.30791 64.6019 2.21693 62.9985C3.12594 61.395 4.37936 60.1303 5.9659 59.21C7.55243 58.3179 9.29141 57.8662 11.1885 57.8662C12.2217 57.8662 13.1194 57.9453 13.876 58.109C14.6326 58.2727 15.4964 58.5212 16.4619 58.8543C16.9418 59.0406 17.258 59.1309 17.4104 59.1309C17.8339 59.1309 18.1049 58.7978 18.2234 58.1316H18.4606L19.1325 64.1954H18.9235C18.1275 62.304 17.0378 60.853 15.6545 59.848C14.2712 58.843 12.7863 58.3405 11.1885 58.3405C10.1891 58.3405 9.25189 58.5494 8.3824 58.9728C7.51291 59.3963 6.75634 59.9835 6.12963 60.7344C5.49727 61.491 5.00042 62.4113 4.64472 63.501C4.28902 64.5906 4.1027 65.782 4.1027 67.0693C4.1027 69.226 4.46405 71.0949 5.18674 72.6814C5.90943 74.2679 6.89185 75.4762 8.12268 76.2949C9.32529 77.1079 10.5787 77.5201 11.8829 77.5201C12.9896 77.5201 14.0059 77.3168 14.9318 76.9047C15.8408 76.5038 16.2981 75.9618 16.2981 75.2899V70.869C16.2981 70.4682 16.2304 70.1689 16.1005 69.9826C15.9707 69.7963 15.7053 69.6495 15.3101 69.5535C14.9149 69.4575 14.2938 69.3898 13.4412 69.3559V69.147H21.2779V69.3559C20.3915 69.4067 19.8156 69.5253 19.5503 69.7116C19.2849 69.8979 19.1494 70.2706 19.1494 70.8408V74.985C19.1494 75.448 19.3018 75.6795 19.6067 75.6795C19.714 75.6795 19.9116 75.6343 20.1996 75.5496L20.2786 75.7359C19.2002 76.3739 17.8113 76.9159 16.1118 77.3507C14.4293 77.7798 12.8371 77.9943 11.3409 77.9943V78Z" fill="#231F20"/>
<path d="M28.3579 78C27.5167 78 26.7262 77.8419 25.9866 77.5314C25.2469 77.2208 24.6033 76.7861 24.0556 76.2328C23.508 75.6738 23.0732 74.985 22.7514 74.1663C22.4296 73.3476 22.2715 72.4556 22.2715 71.4901C22.2715 69.5083 22.8756 67.854 24.0895 66.5272C25.3034 65.2004 26.8165 64.5342 28.6346 64.5342C30.2098 64.5342 31.4632 64.9689 32.3948 65.8384C33.3264 66.7079 33.795 67.8992 33.8007 69.4124H24.8574C24.8404 69.5027 24.8291 69.689 24.8291 69.977C24.8291 71.8458 25.2978 73.3589 26.2294 74.5164C27.161 75.6738 28.3297 76.2497 29.7355 76.2497C31.5479 76.2497 33.0385 75.2899 34.2072 73.3702L34.3935 73.4775C33.8176 74.8947 32.982 76.0069 31.8867 76.803C30.797 77.5991 29.617 78 28.3579 78ZM24.8856 68.9776H30.2493C30.5825 68.9776 30.8026 68.9212 30.9156 68.8082C31.0228 68.6953 31.0793 68.4638 31.0793 68.1251C31.0793 67.2217 30.8422 66.4708 30.3679 65.8723C29.8936 65.2738 29.2387 64.9746 28.4087 64.9746C27.4884 64.9746 26.7093 65.3246 26.0656 66.0247C25.4276 66.7248 25.0324 67.7129 24.88 68.9833L24.8856 68.9776Z" fill="#231F20"/>
<path d="M43.2915 77.7404V77.5315C43.969 77.4807 44.4094 77.3678 44.6183 77.1984C44.8272 77.029 44.9345 76.679 44.9345 76.1539V69.3956C44.9345 68.3341 44.6861 67.5324 44.1892 66.9847C43.6924 66.437 43.0092 66.1604 42.1341 66.1604C41.3549 66.1604 40.4177 66.5387 39.3336 67.2896V76.1539C39.3336 76.679 39.4409 77.029 39.6498 77.1984C39.8587 77.3678 40.2934 77.4807 40.9484 77.5315V77.7404H35.0596V77.5315C35.7879 77.4807 36.2622 77.3678 36.4767 77.204C36.6969 77.0403 36.8042 76.6846 36.8042 76.1539V68.8027C36.8042 68.0236 36.6856 67.442 36.4485 67.0638C36.2114 66.6798 35.8161 66.4145 35.2628 66.2564V66.087C36.3864 65.8837 37.7414 65.3699 39.328 64.5513H39.4974L39.2715 67.0355C40.141 66.2112 40.9258 65.6127 41.6259 65.2344C42.326 64.8562 43.1052 64.6698 43.969 64.6698C45.0756 64.6698 45.9338 65.0255 46.5436 65.7426C47.1534 66.4596 47.4639 67.4985 47.4639 68.8648V76.1595C47.4639 76.6846 47.5712 77.0347 47.7914 77.204C48.0116 77.3734 48.4746 77.4863 49.186 77.5372V77.7461H43.2802L43.2915 77.7404Z" fill="#231F20"/>
<path d="M55.115 77.7404V77.5541L66.7402 58.5665H62.3363C61.1111 58.5665 60.1174 58.6737 59.3665 58.8939C58.6156 59.1141 57.9324 59.5263 57.3226 60.1304C56.7128 60.7345 56.1426 61.6097 55.6062 62.7615H55.3804L56.3515 57.9736C56.8935 58.0809 57.8025 58.1317 59.0729 58.1317H70.2464V58.318L58.5309 77.3057H63.3413C65.1819 77.3057 66.6329 76.9895 67.7 76.3515C68.7671 75.7191 69.8004 74.5109 70.811 72.7267H71.0199L69.535 77.7348H55.1094L55.115 77.7404Z" fill="#231F20"/>
<path d="M77.5693 77.74V77.5819C78.5969 77.5311 79.2349 77.4408 79.4946 77.3109C79.7543 77.1867 79.8842 76.8818 79.8842 76.3963V59.4751C79.8842 58.9952 79.7543 58.6903 79.4946 58.5604C79.2349 58.4306 78.5969 58.3459 77.5693 58.2894V58.1313H84.3276C86.4844 58.1313 88.3984 58.5153 90.0809 59.2888C91.7578 60.0623 93.079 61.1633 94.0332 62.603C94.9817 64.0653 95.4503 65.7648 95.4503 67.6901C95.4503 69.6154 94.9535 71.4165 93.9541 72.9522C92.9548 74.4879 91.5771 75.6679 89.8269 76.5036C88.0935 77.3279 86.1739 77.74 84.0679 77.74H77.575H77.5693ZM80.8045 58.5717V76.2325C80.8045 76.577 80.8723 76.8084 81.0078 76.9383C81.1433 77.0682 81.4425 77.1528 81.9055 77.2093C82.3176 77.2771 83.1081 77.3166 84.2712 77.3166C86.1118 77.3166 87.8056 76.9552 89.347 76.2269C90.8883 75.4986 92.1192 74.454 93.0282 73.099C93.9598 71.7552 94.4228 70.1235 94.4228 68.1926C94.4228 66.2616 93.9824 64.5791 93.1016 63.1168C92.2208 61.6545 90.99 60.5253 89.4147 59.7348C87.8621 58.9613 86.0948 58.5774 84.1131 58.5774H80.7989L80.8045 58.5717Z" fill="#231F20"/>
<path d="M96.9012 77.7402V77.5821C97.5504 77.5369 97.9908 77.4918 98.228 77.4353C98.4651 77.3845 98.6288 77.2885 98.7248 77.1474C98.8321 77.0175 98.8829 76.786 98.8829 76.4529V67.1821C98.8829 66.4086 98.77 65.9174 98.5385 65.7085C98.3127 65.4996 97.8327 65.381 97.1044 65.3528V65.1947C98.1376 65.1439 99.0354 64.9237 99.7976 64.5398H99.9048C99.7976 65.2568 99.7468 66.1376 99.7468 67.1821V76.4529C99.7468 76.7691 99.7976 77.0006 99.8992 77.1417C100.001 77.2885 100.181 77.3845 100.447 77.4353C100.78 77.5031 101.209 77.5539 101.734 77.5821V77.7402H96.8955H96.9012ZM98.4764 60.1133C98.3183 59.9608 98.2393 59.7689 98.2393 59.543C98.2393 59.3172 98.3183 59.1196 98.4764 58.9671C98.6345 58.8147 98.8264 58.73 99.0523 58.73C99.2781 58.73 99.4701 58.809 99.6225 58.9671C99.775 59.1252 99.854 59.3172 99.854 59.543C99.854 59.7689 99.775 59.9608 99.6225 60.1133C99.4701 60.2657 99.2781 60.3447 99.0523 60.3447C98.8264 60.3447 98.6288 60.2657 98.4764 60.1133Z" fill="#231F20"/>
<path d="M111.073 77.9492C110.181 77.9492 109.729 77.2322 109.729 75.8038V75.657C108.306 77.1814 106.968 77.9436 105.703 77.9436C104.896 77.9436 104.235 77.7008 103.716 77.2096C103.196 76.7184 102.942 76.0861 102.942 75.3182C102.942 74.635 103.208 74.0648 103.733 73.6074C104.258 73.1501 105.195 72.721 106.545 72.3201L109.729 71.3886V68.2042C109.729 67.2048 109.526 66.4596 109.125 65.974C108.724 65.4884 108.154 65.2457 107.414 65.2457C107.013 65.2457 106.55 65.3473 106.042 65.5562C105.528 65.7651 105.099 66.0022 104.755 66.2789C104.41 66.5555 104.235 66.787 104.235 66.9677C104.235 67.0355 104.252 67.1935 104.286 67.425C104.32 67.6622 104.337 67.809 104.337 67.8711C104.337 68.08 104.286 68.2494 104.179 68.3679C104.072 68.4921 103.93 68.5542 103.744 68.5542C103.575 68.5542 103.439 68.5091 103.321 68.4187C103.208 68.3284 103.151 68.2042 103.151 68.0461C103.151 67.5888 103.513 67.0185 104.23 66.3241C104.749 65.8329 105.325 65.432 105.974 65.1214C106.618 64.8109 107.222 64.6528 107.781 64.6528C109.65 64.6528 110.581 65.799 110.581 68.0969V75.8038C110.581 76.7692 110.903 77.2491 111.553 77.2491C112.078 77.2491 112.608 76.82 113.145 75.9618L113.275 76.0409C112.676 77.3112 111.942 77.9492 111.067 77.9492H111.073ZM103.801 75.1206C103.801 75.7699 104.004 76.295 104.416 76.6958C104.828 77.0967 105.359 77.3 106.008 77.3C107.092 77.3 108.334 76.6281 109.729 75.29V71.7273L106.624 72.6759C105.596 72.9807 104.868 73.3251 104.439 73.6921C104.009 74.0648 103.795 74.539 103.795 75.1206H103.801Z" fill="#231F20"/>
<path d="M129.812 77.74V77.5819C130.591 77.5311 131.082 77.4408 131.285 77.3278C131.489 77.2093 131.59 76.9157 131.59 76.4527V68.9604C131.59 66.4874 130.602 65.251 128.632 65.251C127.954 65.251 127.311 65.409 126.684 65.7309C126.063 66.0527 125.261 66.6004 124.29 67.3795C124.375 67.9498 124.42 68.441 124.42 68.8531V76.4527C124.42 76.927 124.521 77.2206 124.725 77.3335C124.928 77.4464 125.453 77.5311 126.3 77.5819V77.74H121.777V77.5819C122.557 77.5311 123.048 77.4408 123.251 77.3278C123.454 77.2093 123.556 76.9157 123.556 76.4527V68.9604C123.556 66.4874 122.568 65.251 120.597 65.251C119.937 65.251 119.293 65.4147 118.666 65.7365C118.034 66.0583 117.283 66.5778 116.408 67.2892V76.4527C116.408 76.9157 116.51 77.2093 116.713 77.3278C116.916 77.4464 117.407 77.5311 118.187 77.5819V77.74H113.664V77.5819C114.511 77.5311 115.042 77.4464 115.239 77.3335C115.437 77.2206 115.544 76.927 115.544 76.4527V67.1819C115.544 66.4197 115.437 65.9285 115.217 65.7139C114.997 65.4994 114.55 65.3808 113.873 65.3526V65.1945C114.838 65.1437 115.702 64.9235 116.465 64.5396H116.572L116.363 67.0238C117.238 66.2108 118.034 65.6123 118.751 65.2284C119.468 64.8444 120.247 64.6581 121.1 64.6581C122.771 64.6581 123.827 65.4655 124.256 67.0746C125.131 66.2616 125.944 65.6518 126.695 65.2566C127.446 64.8557 128.253 64.6581 129.123 64.6581C130.218 64.6581 131.048 65.0082 131.613 65.7139C132.177 66.4197 132.46 67.4642 132.46 68.8475V76.447C132.46 76.9213 132.561 77.2149 132.77 77.3278C132.974 77.4408 133.504 77.5254 134.357 77.5762V77.7343H129.834L129.812 77.74Z" fill="#231F20"/>
<path d="M141.657 78C140.545 78 139.523 77.7233 138.586 77.17C137.654 76.6167 136.909 75.8375 136.361 74.8269C135.814 73.8163 135.537 72.6871 135.537 71.4336C135.537 69.418 136.141 67.7637 137.349 66.4708C138.558 65.1778 140.06 64.5342 141.861 64.5342C142.691 64.5342 143.487 64.6979 144.232 65.0254C144.977 65.3529 145.632 65.8045 146.18 66.3748C146.728 66.945 147.162 67.6395 147.49 68.4582C147.812 69.2768 147.975 70.1633 147.975 71.1062C147.975 73.1218 147.371 74.7761 146.163 76.0634C144.955 77.3507 143.453 77.9943 141.652 77.9943L141.657 78ZM136.452 70.9537C136.452 72.9637 136.977 74.5785 138.038 75.798C139.094 77.0232 140.41 77.633 141.974 77.633C143.436 77.633 144.65 77.0853 145.615 75.9843C146.581 74.8834 147.061 73.421 147.061 71.5974C147.061 69.5874 146.53 67.9726 145.474 66.7531C144.418 65.5279 143.103 64.9181 141.539 64.9181C140.077 64.9181 138.863 65.4658 137.897 66.5668C136.932 67.6677 136.452 69.1301 136.452 70.9537Z" fill="#231F20"/>
<path d="M157.59 77.7402V77.5821C158.369 77.5313 158.861 77.441 159.064 77.328C159.267 77.2095 159.369 76.9159 159.369 76.4529V68.9606C159.369 67.7354 159.103 66.8095 158.578 66.1884C158.053 65.5673 157.291 65.2568 156.292 65.2568C155.631 65.2568 154.988 65.4205 154.361 65.7424C153.728 66.0642 152.978 66.5836 152.102 67.295V76.4585C152.102 76.9215 152.204 77.2151 152.407 77.3337C152.611 77.4523 153.102 77.5369 153.881 77.5878V77.7458H149.358V77.5878C150.205 77.5369 150.736 77.4522 150.934 77.3393C151.131 77.2264 151.239 76.9328 151.239 76.4585V67.1878C151.239 66.4255 151.131 65.9343 150.911 65.7198C150.691 65.5052 150.245 65.3867 149.567 65.3584V65.2004C150.533 65.1495 151.397 64.9293 152.159 64.5454H152.266L152.057 67.0297C152.932 66.2166 153.728 65.6182 154.445 65.2342C155.163 64.8503 155.942 64.664 156.794 64.664C157.901 64.664 158.748 65.0197 159.346 65.7311C159.945 66.4425 160.238 67.487 160.238 68.859V76.4585C160.238 76.9328 160.34 77.2264 160.549 77.3393C160.758 77.4522 161.283 77.5369 162.135 77.5878V77.7458H157.613L157.59 77.7402Z" fill="#231F20"/>
<path d="M169.085 77.8983C167.465 77.8983 166.098 77.3054 164.992 76.1141C163.885 74.9228 163.326 73.3701 163.326 71.4392C163.326 70.0785 163.608 68.8815 164.167 67.8427C164.726 66.8038 165.483 66.0134 166.42 65.4713C167.357 64.9293 168.413 64.6583 169.571 64.6583C171.129 64.6583 172.478 65.1043 173.608 66.0021V60.7287C173.608 59.9664 173.568 59.4301 173.495 59.1195C173.421 58.809 173.28 58.6001 173.066 58.4928C172.857 58.3856 172.478 58.3235 171.936 58.2952V58.1371C172.828 58.1089 173.692 57.7871 174.528 57.166H174.635C174.528 58.0073 174.477 59.1929 174.477 60.7287V75.4818C174.477 76.244 174.579 76.7239 174.782 76.9159C174.985 77.1078 175.476 77.2038 176.256 77.2038V77.3619C175.194 77.4127 174.296 77.6273 173.562 78.0055H173.455L173.664 75.9165C172.162 77.2377 170.638 77.9039 169.091 77.9039L169.085 77.8983ZM164.235 71.0101C164.235 72.958 164.704 74.4937 165.641 75.6173C166.578 76.7408 167.871 77.3054 169.52 77.3054C170.881 77.3054 172.241 76.7408 173.608 75.6116V68.3169C173.608 67.3797 173.218 66.5949 172.445 65.9682C171.671 65.3415 170.677 65.0253 169.469 65.0253C168.758 65.0253 168.086 65.1552 167.459 65.4205C166.832 65.6859 166.273 66.0585 165.794 66.5497C165.314 67.0409 164.935 67.6676 164.659 68.4355C164.376 69.2034 164.235 70.0616 164.235 71.0045V71.0101Z" fill="#231F20"/>
<path d="M181.219 77.9998C179.898 77.9998 178.741 77.7344 177.747 77.198L177.51 74.5557H177.668C178.108 76.6052 179.288 77.6328 181.219 77.6328C182.185 77.6328 182.975 77.3674 183.596 76.8423C184.217 76.3172 184.528 75.6567 184.528 74.8549C184.528 73.5112 183.613 72.4554 181.778 71.6706L180.847 71.264C178.899 70.451 177.928 69.2936 177.928 67.7917C177.928 66.8263 178.255 66.0415 178.916 65.4373C179.576 64.8332 180.372 64.5283 181.321 64.5283C182.405 64.5283 183.432 64.7824 184.398 65.2905L184.584 67.5546H184.426C184.223 66.7472 183.833 66.1036 183.252 65.6293C182.67 65.1494 182.027 64.9123 181.326 64.9123C180.547 64.9123 179.892 65.1324 179.362 65.5785C178.831 66.0189 178.566 66.6061 178.566 67.3344C178.566 68.0119 178.758 68.5822 179.136 69.0564C179.52 69.5307 180.203 69.9824 181.191 70.4115L182.14 70.818C184.149 71.6762 185.149 72.8675 185.149 74.3919C185.149 75.4534 184.782 76.3172 184.042 76.9891C183.308 77.661 182.365 77.9941 181.214 77.9941L181.219 77.9998Z" fill="#231F20"/>
<path d="M97.7707 0.513789L81.3463 0.767861L81.6286 0.643648L67.8467 16.0686L67.8128 15.1032L94.7105 40.1603L93.1183 40.1885L99.216 33.752C105.325 27.3212 111.598 21.0597 117.967 14.883L118.706 16.6332C115.217 16.5429 111.728 16.43 108.238 16.2775C104.749 16.1307 101.26 15.9557 97.7707 15.7242V15.4701C99.5153 15.3459 101.26 15.2612 103.005 15.1709C109.023 14.8491 115.076 14.6458 121.106 14.5103C112.428 24.0182 103.134 33.5262 93.937 42.5655L93.1466 41.792L66.8642 16.1025L66.373 15.6226L66.8304 15.137L81.064 0.124213L81.1826 0H81.3463L97.7707 0.259718V0.513789Z" fill="#BD9E5E"/>
</g>
<defs>
<clipPath id="clip0_485_761">
<rect width="184.298" height="78" fill="white" transform="translate(0.850586)"/>
</clipPath>
</defs>
</svg>
