<svg width="162" height="78" viewBox="0 0 162 78" fill="none" xmlns="http://www.w3.org/2000/svg">
<path d="M105.709 13.5433L84.6396 14.8031L100.677 15.748L81.1804 35.9055L58.2245 14.8031L69.8597 1.5748L84.6396 0H69.2308L55.7087 14.8031L81.1804 40L105.709 13.5433Z" fill="white"/>
<path d="M15.8008 62.5195C15.4753 62.5456 15.2083 62.5911 15 62.6562C14.8047 62.7083 14.6484 62.7995 14.5312 62.9297C14.4271 63.0469 14.3555 63.2161 14.3164 63.4375C14.2773 63.6458 14.2578 63.9128 14.2578 64.2383V68.75C14.0365 68.9453 13.7109 69.1406 13.2812 69.3359C12.8516 69.5182 12.3698 69.6875 11.8359 69.8438C11.3151 69.987 10.7747 70.0977 10.2148 70.1758C9.66797 70.2669 9.15365 70.3125 8.67188 70.3125C7.4349 70.3125 6.28906 70.1107 5.23438 69.707C4.19271 69.3034 3.30078 68.7109 2.55859 67.9297C1.93359 67.2656 1.47135 66.5104 1.17188 65.6641C0.872396 64.8177 0.722656 63.8542 0.722656 62.7734C0.722656 61.6276 0.911458 60.5794 1.28906 59.6289C1.66667 58.6654 2.1875 57.8385 2.85156 57.1484C3.52865 56.4583 4.32943 55.918 5.25391 55.5273C6.19141 55.1367 7.22005 54.9414 8.33984 54.9414C9.35547 54.9414 10.3711 55.1107 11.3867 55.4492C11.8164 55.6055 12.1484 55.6836 12.3828 55.6836C12.6172 55.6836 12.8255 55.612 13.0078 55.4688C13.1901 55.3255 13.3138 55.1497 13.3789 54.9414H13.8477L14.043 59.6484H13.5352C13.3919 59.3099 13.2617 59.0169 13.1445 58.7695C13.0273 58.5091 12.9036 58.2812 12.7734 58.0859C12.6562 57.8776 12.5326 57.6953 12.4023 57.5391C12.2721 57.3698 12.1224 57.207 11.9531 57.0508C11.0677 56.2305 9.99349 55.8203 8.73047 55.8203C7.92318 55.8203 7.17448 55.9766 6.48438 56.2891C5.80729 56.6016 5.22786 57.0508 4.74609 57.6367C4.29036 58.1966 3.92578 58.9388 3.65234 59.8633C3.37891 60.7747 3.24219 61.7318 3.24219 62.7344C3.24219 63.776 3.37891 64.7135 3.65234 65.5469C3.92578 66.3672 4.31641 67.0638 4.82422 67.6367C5.33203 68.2096 5.94401 68.6523 6.66016 68.9648C7.38932 69.2773 8.20964 69.4336 9.12109 69.4336C9.52474 69.4336 9.90234 69.401 10.2539 69.3359C10.6185 69.2578 10.9375 69.1602 11.2109 69.043C11.4844 68.9258 11.6992 68.7891 11.8555 68.6328C12.0117 68.4635 12.0898 68.2878 12.0898 68.1055V64.4922C12.0898 64.0885 12.0703 63.763 12.0312 63.5156C11.9922 63.2682 11.901 63.0794 11.7578 62.9492C11.6276 62.806 11.4323 62.7083 11.1719 62.6562C10.9115 62.5911 10.5599 62.5456 10.1172 62.5195V62.1094H15.8008V62.5195ZM25.5469 66.5039C25.0781 67.7279 24.4401 68.6523 23.6328 69.2773C22.8385 69.9023 21.901 70.2148 20.8203 70.2148C20.1823 70.2148 19.6029 70.0977 19.082 69.8633C18.5742 69.6289 18.138 69.2969 17.7734 68.8672C17.4089 68.4375 17.1289 67.9167 16.9336 67.3047C16.7383 66.6927 16.6406 66.0026 16.6406 65.2344C16.6406 64.4141 16.7513 63.6654 16.9727 62.9883C17.207 62.3112 17.526 61.7318 17.9297 61.25C18.3464 60.7552 18.8411 60.3711 19.4141 60.0977C19.987 59.8242 20.6185 59.6875 21.3086 59.6875C21.8945 59.6875 22.4284 59.7982 22.9102 60.0195C23.4049 60.2409 23.8216 60.5534 24.1602 60.957C24.3034 61.1393 24.4206 61.3216 24.5117 61.5039C24.6159 61.6862 24.7005 61.888 24.7656 62.1094C24.8438 62.3307 24.9089 62.5781 24.9609 62.8516C25.013 63.125 25.0651 63.4375 25.1172 63.7891H18.2617C18.2878 64.5052 18.3464 65.0977 18.4375 65.5664C18.5417 66.0221 18.7044 66.4648 18.9258 66.8945C19.5638 68.0924 20.5013 68.6914 21.7383 68.6914C22.4544 68.6914 23.0729 68.5156 23.5938 68.1641C24.1276 67.8125 24.6615 67.2135 25.1953 66.3672L25.5469 66.5039ZM22.8516 63.0469C22.7083 62.0833 22.474 61.4193 22.1484 61.0547C21.8359 60.6771 21.3411 60.4883 20.6641 60.4883C19.974 60.4883 19.4336 60.6901 19.043 61.0938C18.6654 61.4974 18.418 62.1484 18.3008 63.0469H22.8516ZM26.3477 60.7422C26.9596 60.5729 27.487 60.4167 27.9297 60.2734C28.3854 60.1302 28.8802 59.9544 29.4141 59.7461L29.5898 59.7852V61.5625C29.9674 61.2109 30.2995 60.918 30.5859 60.6836C30.8724 60.4492 31.1328 60.2669 31.3672 60.1367C31.6146 59.9935 31.849 59.8958 32.0703 59.8438C32.3047 59.7786 32.5521 59.7461 32.8125 59.7461C33.6328 59.7461 34.2773 60.0391 34.7461 60.625C35.2148 61.2109 35.4492 62.0312 35.4492 63.0859V68.2031C35.4492 68.737 35.5404 69.1016 35.7227 69.2969C35.9049 69.4922 36.263 69.6224 36.7969 69.6875V70H32.168V69.6875C32.4414 69.6615 32.6693 69.6159 32.8516 69.5508C33.0339 69.4857 33.1771 69.3815 33.2812 69.2383C33.3984 69.0951 33.4766 68.9062 33.5156 68.6719C33.5547 68.4375 33.5742 68.1445 33.5742 67.793V63.125C33.5742 61.6927 33.0339 60.9766 31.9531 60.9766C31.7708 60.9766 31.5951 60.9961 31.4258 61.0352C31.2565 61.0742 31.0807 61.1393 30.8984 61.2305C30.7292 61.3216 30.5404 61.4518 30.332 61.6211C30.1367 61.7904 29.9023 61.9987 29.6289 62.2461V68.5156C29.6289 68.9193 29.7331 69.2057 29.9414 69.375C30.1497 69.5312 30.5404 69.6354 31.1133 69.6875V70H26.3867V69.6875C26.6732 69.6615 26.901 69.6224 27.0703 69.5703C27.2526 69.5052 27.3958 69.4076 27.5 69.2773C27.6042 69.1471 27.6758 68.9844 27.7148 68.7891C27.7539 68.5807 27.7734 68.3203 27.7734 68.0078V62.4609C27.7734 61.9141 27.7148 61.543 27.5977 61.3477C27.4805 61.1393 27.2656 61.0352 26.9531 61.0352C26.7188 61.0352 26.5169 61.0677 26.3477 61.1328V60.7422ZM56.3281 66.0938L55.7812 70H43.2031V69.6875L52.9492 56.0938H48.0273C46.543 56.0938 45.5404 56.4128 45.0195 57.0508C44.8372 57.2852 44.6875 57.5456 44.5703 57.832C44.4661 58.1055 44.375 58.5091 44.2969 59.043H43.6914L44.1406 55.2344H55.8789V55.5859L46.2305 69.1602H51.9727C52.6107 69.1602 53.1641 69.0885 53.6328 68.9453C54.1146 68.7891 54.4857 68.5677 54.7461 68.2812C54.8633 68.1641 54.9609 68.0404 55.0391 67.9102C55.1302 67.7799 55.2148 67.6367 55.293 67.4805C55.3841 67.3112 55.4688 67.1159 55.5469 66.8945C55.625 66.6732 55.7096 66.4062 55.8008 66.0938H56.3281Z" fill="white"/>
<path d="M66.0347 57.5781C66.0347 57.2135 66.0086 56.9141 65.9565 56.6797C65.9045 56.4453 65.8133 56.263 65.6831 56.1328C65.5399 55.9896 65.3381 55.8919 65.0776 55.8398C64.8302 55.7878 64.5047 55.7617 64.1011 55.7617V55.2734C64.9214 55.2865 65.8394 55.293 66.855 55.293C67.8836 55.293 68.8667 55.2865 69.8042 55.2734C71.0672 55.2734 72.1935 55.4753 73.1831 55.8789C74.1857 56.2826 75.0256 56.8229 75.7026 57.5C76.3927 58.1771 76.9136 58.9518 77.2651 59.8242C77.6297 60.6966 77.812 61.6016 77.812 62.5391C77.812 63.4635 77.6427 64.3685 77.3042 65.2539C76.9657 66.1263 76.4578 66.901 75.7808 67.5781C75.0907 68.2682 74.2313 68.8216 73.2026 69.2383C72.174 69.6419 70.9631 69.8438 69.5698 69.8438C69.1792 69.8438 68.7495 69.8438 68.2808 69.8438C67.812 69.8307 67.3302 69.8242 66.8354 69.8242C66.3407 69.8242 65.8524 69.8307 65.3706 69.8438C64.9019 69.8438 64.4787 69.8438 64.1011 69.8438V69.3164C64.5047 69.3164 64.8302 69.2969 65.0776 69.2578C65.3381 69.2057 65.5399 69.1081 65.6831 68.9648C65.8133 68.8216 65.9045 68.6263 65.9565 68.3789C66.0086 68.1185 66.0347 67.7865 66.0347 67.3828V57.5781ZM67.3433 67.4023C67.3433 67.806 67.3758 68.1315 67.4409 68.3789C67.506 68.6133 67.6297 68.7956 67.812 68.9258C67.9943 69.056 68.2547 69.1406 68.5933 69.1797C68.9318 69.2188 69.368 69.2383 69.9019 69.2383C71.0347 69.2383 72.0112 69.056 72.8315 68.6914C73.6519 68.3268 74.3224 67.8385 74.8433 67.2266C75.3771 66.6146 75.7677 65.8984 76.0151 65.0781C76.2625 64.2578 76.3862 63.3984 76.3862 62.5C76.3862 61.4714 76.2235 60.5534 75.8979 59.7461C75.5724 58.9258 75.1102 58.2292 74.5112 57.6562C73.8993 57.0964 73.1571 56.6667 72.2847 56.3672C71.4253 56.0547 70.4487 55.8984 69.355 55.8984C69.1206 55.8984 68.8993 55.9049 68.6909 55.918C68.4956 55.918 68.3133 55.9245 68.144 55.9375C67.9618 55.9505 67.8055 55.9635 67.6753 55.9766C67.5451 55.9766 67.4344 55.9766 67.3433 55.9766V67.4023ZM82.4604 68.0469C82.4604 68.6068 82.5516 68.9648 82.7339 69.1211C82.9162 69.2773 83.2938 69.3555 83.8667 69.3555V69.8438C83.6844 69.8438 83.5151 69.8438 83.3589 69.8438C83.2026 69.8438 83.0464 69.8372 82.8901 69.8242C82.7339 69.8242 82.5711 69.8242 82.4019 69.8242C82.2456 69.8112 82.0763 69.8047 81.894 69.8047C81.6987 69.8047 81.5164 69.8112 81.3472 69.8242C81.1909 69.8242 81.0347 69.8242 80.8784 69.8242C80.7091 69.8242 80.5399 69.8307 80.3706 69.8438C80.2144 69.8438 80.0451 69.8438 79.8628 69.8438V69.3555C80.4357 69.3555 80.8133 69.2773 80.9956 69.1211C81.1779 68.9648 81.269 68.6068 81.269 68.0469V63.2617C81.269 62.9102 81.256 62.6302 81.23 62.4219C81.2039 62.2135 81.1519 62.0508 81.0737 61.9336C80.9956 61.8164 80.8784 61.7383 80.7222 61.6992C80.5659 61.6602 80.3511 61.6406 80.0776 61.6406V61.2305C80.4943 61.1654 80.8719 61.0677 81.2104 60.9375C81.562 60.8073 81.8875 60.6055 82.187 60.332H82.5386C82.4995 60.6836 82.4735 61.0612 82.4604 61.4648C82.4604 61.8555 82.4604 62.207 82.4604 62.5195V68.0469ZM80.8589 56.0547C80.8589 55.7943 80.95 55.5664 81.1323 55.3711C81.3276 55.1758 81.5555 55.0781 81.8159 55.0781C82.0763 55.0781 82.3042 55.1758 82.4995 55.3711C82.6948 55.5664 82.7925 55.7943 82.7925 56.0547C82.7925 56.3151 82.6948 56.543 82.4995 56.7383C82.3042 56.9206 82.0763 57.0117 81.8159 57.0117C81.5555 57.0117 81.3276 56.9206 81.1323 56.7383C80.95 56.543 80.8589 56.3151 80.8589 56.0547ZM90.937 65.0781C89.5047 65.5078 88.4305 65.9115 87.7144 66.2891C87.0112 66.6536 86.6597 67.1224 86.6597 67.6953C86.6597 68.2943 86.8094 68.7044 87.1089 68.9258C87.4214 69.1341 87.8511 69.2383 88.3979 69.2383C88.8797 69.2383 89.342 69.1081 89.7847 68.8477C90.2274 68.5872 90.6115 68.2812 90.937 67.9297V65.0781ZM93.8862 69.1016C93.5998 69.375 93.2938 69.6224 92.9683 69.8438C92.6558 70.0651 92.3368 70.1758 92.0112 70.1758C91.6987 70.1758 91.4448 70.0326 91.2495 69.7461C91.0672 69.4596 90.9631 69.043 90.937 68.4961C90.4552 69.0039 89.9214 69.4141 89.3354 69.7266C88.7495 70.026 88.1375 70.1758 87.4995 70.1758C86.9136 70.1758 86.4188 69.987 86.0151 69.6094C85.6115 69.2188 85.4227 68.7305 85.4487 68.1445C85.4618 67.6628 85.605 67.2526 85.8784 66.9141C86.1649 66.5625 86.5555 66.2565 87.0503 65.9961C87.5321 65.7357 88.105 65.4948 88.769 65.2734C89.4331 65.0521 90.1558 64.8177 90.937 64.5703V63.2227C90.937 62.6497 90.8003 62.181 90.5269 61.8164C90.2664 61.4388 89.7521 61.25 88.9839 61.25C88.437 61.25 87.9487 61.4128 87.519 61.7383C87.1024 62.0508 86.8875 62.4349 86.8745 62.8906C86.8745 63.2031 86.8094 63.431 86.6792 63.5742C86.562 63.7174 86.4123 63.7891 86.23 63.7891C86.0737 63.7891 85.95 63.724 85.8589 63.5938C85.7808 63.4635 85.7417 63.2943 85.7417 63.0859C85.7417 62.7344 85.9045 62.3958 86.23 62.0703C86.5685 61.7448 87.1089 61.3867 87.8511 60.9961C88.2808 60.7617 88.6323 60.5924 88.9058 60.4883C89.1922 60.3841 89.4917 60.332 89.8042 60.332C90.4292 60.332 90.9696 60.5208 91.4253 60.8984C91.894 61.276 92.1284 61.8229 92.1284 62.5391V67.8711C92.1284 68.6003 92.2847 69.0169 92.5972 69.1211C92.9227 69.2253 93.3328 69.1081 93.8276 68.7695L93.8862 69.1016ZM97.8706 60.332C97.8315 60.6836 97.8055 61.0352 97.7925 61.3867C97.7925 61.7383 97.7925 61.9922 97.7925 62.1484C98.0659 61.9531 98.3524 61.7448 98.6519 61.5234C98.9644 61.3021 99.2769 61.1068 99.5894 60.9375C99.9149 60.7552 100.24 60.6055 100.566 60.4883C100.891 60.3711 101.217 60.3125 101.542 60.3125C102.011 60.3125 102.428 60.4492 102.792 60.7227C103.17 60.9831 103.45 61.4453 103.632 62.1094C104.179 61.6797 104.772 61.276 105.41 60.8984C106.048 60.5078 106.692 60.3125 107.343 60.3125C107.734 60.3125 108.066 60.3971 108.339 60.5664C108.626 60.7227 108.86 60.9375 109.042 61.2109C109.225 61.4844 109.361 61.8034 109.453 62.168C109.544 62.5195 109.589 62.8841 109.589 63.2617V67.9102C109.589 68.457 109.674 68.8346 109.843 69.043C110.026 69.2513 110.39 69.3555 110.937 69.3555V69.8438C110.403 69.8307 109.759 69.8242 109.003 69.8242C108.261 69.8112 107.604 69.8177 107.031 69.8438V69.3555C107.591 69.3555 107.955 69.2513 108.125 69.043C108.307 68.8346 108.398 68.457 108.398 67.9102V63.9844C108.398 63.6328 108.378 63.3008 108.339 62.9883C108.3 62.6628 108.216 62.3828 108.085 62.1484C107.955 61.9141 107.76 61.7253 107.5 61.582C107.252 61.4388 106.907 61.3672 106.464 61.3672C106.217 61.3672 105.957 61.4193 105.683 61.5234C105.423 61.6146 105.162 61.7318 104.902 61.875C104.654 62.0052 104.42 62.1484 104.199 62.3047C103.99 62.4609 103.821 62.5911 103.691 62.6953V67.9102C103.691 68.457 103.782 68.8346 103.964 69.043C104.16 69.2513 104.544 69.3555 105.117 69.3555V69.8438C104.83 69.8438 104.511 69.8438 104.16 69.8438C103.821 69.8307 103.476 69.8242 103.125 69.8242C102.76 69.8242 102.402 69.8242 102.05 69.8242C101.712 69.8242 101.406 69.8307 101.132 69.8438V69.3555C101.679 69.3555 102.037 69.2513 102.207 69.043C102.389 68.8346 102.48 68.457 102.48 67.9102V63.9844C102.48 63.6328 102.46 63.3008 102.421 62.9883C102.395 62.6628 102.317 62.3828 102.187 62.1484C102.057 61.9141 101.868 61.7253 101.621 61.582C101.373 61.4388 101.028 61.3672 100.585 61.3672C100.39 61.3672 100.169 61.4128 99.9214 61.5039C99.687 61.582 99.4396 61.6862 99.1792 61.8164C98.9188 61.9596 98.6649 62.1159 98.4175 62.2852C98.1831 62.4414 97.9748 62.6042 97.7925 62.7734V67.9102C97.7925 68.457 97.8771 68.8346 98.0464 69.043C98.2287 69.2513 98.5998 69.3555 99.1597 69.3555V69.8438C98.5998 69.8307 97.9357 69.8242 97.1675 69.8242C96.4123 69.8112 95.7417 69.8177 95.1558 69.8438V69.3555C95.7417 69.3555 96.1258 69.2513 96.3081 69.043C96.4904 68.8346 96.5815 68.457 96.5815 67.9102V63.2617C96.5815 62.9102 96.5685 62.6302 96.5425 62.4219C96.5295 62.2135 96.4839 62.0508 96.4058 61.9336C96.3276 61.8164 96.2104 61.7383 96.0542 61.6992C95.8979 61.6602 95.6831 61.6406 95.4097 61.6406V61.2305C95.8263 61.1654 96.2039 61.0677 96.5425 60.9375C96.894 60.8073 97.2131 60.6055 97.4995 60.332H97.8706ZM121.816 65.1953C121.816 65.8854 121.692 66.5365 121.445 67.1484C121.197 67.7474 120.865 68.2682 120.449 68.7109C120.032 69.1667 119.544 69.5247 118.984 69.7852C118.437 70.0456 117.851 70.1758 117.226 70.1758C116.575 70.1758 115.957 70.0651 115.371 69.8438C114.785 69.6224 114.27 69.2969 113.828 68.8672C113.385 68.4505 113.033 67.9427 112.773 67.3438C112.513 66.7318 112.382 66.0482 112.382 65.293C112.382 64.6159 112.493 63.9779 112.714 63.3789C112.949 62.7669 113.268 62.2331 113.671 61.7773C114.088 61.3346 114.576 60.9831 115.136 60.7227C115.696 60.4492 116.308 60.3125 116.972 60.3125C117.649 60.3125 118.281 60.4297 118.867 60.6641C119.466 60.8854 119.98 61.2109 120.41 61.6406C120.839 62.0573 121.178 62.5716 121.425 63.1836C121.686 63.7826 121.816 64.4531 121.816 65.1953ZM120.371 65.4102C120.371 64.9284 120.312 64.4206 120.195 63.8867C120.078 63.3398 119.889 62.8451 119.628 62.4023C119.355 61.9466 119.003 61.5755 118.574 61.2891C118.157 60.9896 117.643 60.8398 117.031 60.8398C116.445 60.8398 115.944 60.9701 115.527 61.2305C115.123 61.4909 114.798 61.8229 114.55 62.2266C114.303 62.6432 114.121 63.1055 114.003 63.6133C113.899 64.1081 113.847 64.5964 113.847 65.0781C113.847 65.5339 113.906 66.0286 114.023 66.5625C114.14 67.0833 114.329 67.5716 114.589 68.0273C114.85 68.4831 115.188 68.8672 115.605 69.1797C116.035 69.4792 116.562 69.6289 117.187 69.6289C117.773 69.6289 118.268 69.4987 118.671 69.2383C119.075 68.9779 119.401 68.6393 119.648 68.2227C119.908 67.819 120.091 67.3698 120.195 66.875C120.312 66.3672 120.371 65.8789 120.371 65.4102ZM125.976 60.332C125.937 60.6836 125.911 61.0286 125.898 61.3672C125.898 61.7057 125.898 61.9596 125.898 62.1289C126.484 61.6992 127.115 61.2891 127.792 60.8984C128.47 60.5078 129.121 60.3125 129.746 60.3125C130.527 60.3125 131.087 60.599 131.425 61.1719C131.764 61.7318 131.933 62.4154 131.933 63.2227V67.8516C131.933 68.3984 132.024 68.7891 132.207 69.0234C132.389 69.2448 132.773 69.3555 133.359 69.3555V69.8438C133.177 69.8438 133.001 69.8438 132.832 69.8438C132.675 69.8438 132.519 69.8372 132.363 69.8242C132.207 69.8242 132.044 69.8242 131.875 69.8242C131.718 69.8112 131.549 69.8047 131.367 69.8047C131.171 69.8047 130.989 69.8112 130.82 69.8242C130.664 69.8242 130.507 69.8242 130.351 69.8242C130.195 69.8242 130.032 69.8307 129.863 69.8438C129.707 69.8438 129.537 69.8438 129.355 69.8438V69.3555C129.915 69.3555 130.286 69.2448 130.468 69.0234C130.651 68.7891 130.742 68.3984 130.742 67.8516V63.2031C130.742 62.5521 130.592 62.0833 130.292 61.7969C129.993 61.5104 129.498 61.3672 128.808 61.3672C128.613 61.3802 128.385 61.4323 128.125 61.5234C127.864 61.6016 127.604 61.6992 127.343 61.8164C127.07 61.9466 126.803 62.0898 126.542 62.2461C126.295 62.4023 126.08 62.5586 125.898 62.7148V67.8516C125.898 68.3984 125.989 68.7891 126.171 69.0234C126.354 69.2448 126.738 69.3555 127.324 69.3555V69.8438C127.128 69.8438 126.953 69.8438 126.796 69.8438C126.64 69.8438 126.484 69.8372 126.328 69.8242C126.171 69.8242 126.009 69.8242 125.839 69.8242C125.683 69.8112 125.514 69.8047 125.332 69.8047C125.136 69.8047 124.954 69.8112 124.785 69.8242C124.628 69.8242 124.472 69.8242 124.316 69.8242C124.147 69.8242 123.977 69.8307 123.808 69.8438C123.652 69.8438 123.483 69.8438 123.3 69.8438V69.3555C123.873 69.3555 124.244 69.2448 124.414 69.0234C124.596 68.7891 124.687 68.3984 124.687 67.8516V63.2617C124.687 62.9102 124.674 62.6302 124.648 62.4219C124.635 62.2135 124.589 62.0508 124.511 61.9336C124.433 61.8164 124.316 61.7383 124.16 61.6992C124.003 61.6602 123.789 61.6406 123.515 61.6406V61.2305C123.932 61.1654 124.309 61.0677 124.648 60.9375C125 60.8073 125.319 60.6055 125.605 60.332H125.976ZM142.011 62.8906C142.011 62.513 141.927 62.2005 141.757 61.9531C141.588 61.6927 141.386 61.4909 141.152 61.3477C140.904 61.2044 140.638 61.1003 140.351 61.0352C140.065 60.9701 139.798 60.9375 139.55 60.9375C139.134 60.9375 138.717 61.0286 138.3 61.2109C137.897 61.3802 137.539 61.6406 137.226 61.9922C136.901 62.3438 136.64 62.7865 136.445 63.3203C136.25 63.8411 136.152 64.4531 136.152 65.1562C136.152 66.3021 136.445 67.2461 137.031 67.9883C137.63 68.7305 138.463 69.1016 139.531 69.1016C139.7 69.1016 139.928 69.069 140.214 69.0039C140.501 68.9258 140.774 68.8216 141.035 68.6914C141.295 68.5612 141.523 68.4115 141.718 68.2422C141.914 68.0729 142.011 67.8906 142.011 67.6953V62.8906ZM142.011 56.9531C142.011 56.6146 141.992 56.3477 141.953 56.1523C141.927 55.944 141.861 55.7812 141.757 55.6641C141.666 55.5599 141.529 55.4948 141.347 55.4688C141.178 55.4427 140.957 55.4297 140.683 55.4297V55.0391C141.1 54.9609 141.503 54.8438 141.894 54.6875C142.298 54.5182 142.649 54.2969 142.949 54.0234H143.3C143.261 54.375 143.235 54.7526 143.222 55.1562C143.209 55.5469 143.203 55.8984 143.203 56.2109V68.0664C143.203 68.5091 143.313 68.776 143.535 68.8672C143.769 68.9453 144.121 68.9714 144.589 68.9453V69.3359C144.342 69.4141 143.984 69.5443 143.515 69.7266C143.059 69.9089 142.636 70.0846 142.246 70.2539C142.167 70.293 142.109 70.293 142.07 70.2539C142.031 70.2279 142.011 70.1758 142.011 70.0977V68.6328C141.477 69.1406 140.924 69.5247 140.351 69.7852C139.791 70.0326 139.238 70.1562 138.691 70.1562C138.118 70.1562 137.591 70.0326 137.109 69.7852C136.64 69.5247 136.236 69.1797 135.898 68.75C135.559 68.3333 135.299 67.8516 135.117 67.3047C134.934 66.7448 134.843 66.1719 134.843 65.5859C134.843 64.8828 134.973 64.2122 135.234 63.5742C135.494 62.9362 135.852 62.3763 136.308 61.8945C136.751 61.4128 137.272 61.0286 137.871 60.7422C138.47 60.4557 139.108 60.3125 139.785 60.3125C140.097 60.3125 140.423 60.3516 140.761 60.4297C141.113 60.4948 141.529 60.638 142.011 60.8594V56.9531ZM146.542 67.0508C146.582 67.3242 146.64 67.6107 146.718 67.9102C146.809 68.2096 146.94 68.4831 147.109 68.7305C147.278 68.9779 147.5 69.1797 147.773 69.3359C148.059 69.4922 148.424 69.5703 148.867 69.5703C149.609 69.5703 150.117 69.4141 150.39 69.1016C150.677 68.776 150.82 68.418 150.82 68.0273C150.82 67.7279 150.755 67.474 150.625 67.2656C150.507 67.0443 150.351 66.849 150.156 66.6797C149.96 66.5104 149.733 66.3607 149.472 66.2305C149.212 66.0872 148.945 65.944 148.671 65.8008C148.007 65.4492 147.434 65.0521 146.953 64.6094C146.471 64.1536 146.23 63.5938 146.23 62.9297C146.23 62.5911 146.302 62.2656 146.445 61.9531C146.588 61.6406 146.79 61.3607 147.05 61.1133C147.311 60.8789 147.623 60.6901 147.988 60.5469C148.365 60.3906 148.789 60.3125 149.257 60.3125C149.57 60.3125 149.915 60.3581 150.292 60.4492C150.683 60.5273 151.054 60.6641 151.406 60.8594L151.562 63.0078H151.152C151.061 62.3438 150.852 61.8359 150.527 61.4844C150.201 61.1198 149.707 60.9375 149.042 60.9375C148.535 60.9375 148.092 61.0677 147.714 61.3281C147.337 61.5755 147.148 61.9141 147.148 62.3438C147.148 62.6562 147.22 62.9297 147.363 63.1641C147.506 63.3854 147.695 63.5872 147.929 63.7695C148.164 63.9388 148.431 64.0951 148.73 64.2383C149.029 64.3815 149.335 64.5182 149.648 64.6484C149.947 64.7917 150.24 64.9414 150.527 65.0977C150.813 65.2539 151.067 65.4427 151.289 65.6641C151.497 65.8724 151.666 66.1198 151.796 66.4062C151.94 66.6797 152.011 66.9987 152.011 67.3633C152.011 67.7148 151.946 68.0599 151.816 68.3984C151.686 68.737 151.484 69.0365 151.21 69.2969C150.937 69.5703 150.592 69.7852 150.175 69.9414C149.759 70.0977 149.27 70.1758 148.71 70.1758C148.32 70.1758 147.903 70.1172 147.46 70C147.018 69.8828 146.64 69.7266 146.328 69.5312L146.093 67.0508H146.542Z" fill="white"/>
</svg>
